<svg width="302" height="458" viewBox="0 0 302 458" fill="none" xmlns="http://www.w3.org/2000/svg">
<path d="M199.031 336.25H237.219V331.75H199.031V336.25ZM131.656 336.25H169.844V331.75H131.656V336.25ZM64.2812 336.25H102.469V331.75H64.2812V336.25ZM301.25 427L301.24 427.781C300.832 443.867 287.867 456.832 271.781 457.24L271 457.25H31C14.2934 457.25 0.749999 443.707 0.75 427V348.75H1C8.30815 348.75 14.3744 343.435 15.5449 336.459L15.5791 336.25H35.0938V331.75H15.5791L15.5449 331.541C14.3744 324.565 8.30815 319.25 1 319.25H0.75V31L0.759766 30.2188C1.17414 13.8732 14.5546 0.750019 31 0.75H271L271.781 0.759766C288.127 1.17413 301.25 14.5546 301.25 31V319.25H301C293.692 319.25 287.626 324.565 286.455 331.541L286.421 331.75H266.406V336.25H286.421L286.455 336.459C287.626 343.435 293.692 348.75 301 348.75H301.25V427Z" fill="#F9FAFB" stroke="#D1D5DC" stroke-width="0.5"/>
</svg>
